<svg xmlns="http://www.w3.org/2000/svg" width="40" height="40" viewBox="0 0 40 40"><path d="M14.6 1.2C9 2.7 2.6 9.4 1.1 15.4-1.1 24.2 3.5 33.7 12 38c3.4 1.8 12.9 1.7 16.5-.2 7-3.7 10.8-10 10.8-17.8 0-9-5.2-16-13.7-18.5C20-.2 20-.2 14.6 1.2zm9.4 5c1.5 2.4 1.6 3.4.7 4-1.6 1-7.8 1-9.4 0C13.5 9 17.4 3 20 3c1.2 0 2.8 1.3 4 3.2zM14 4.5c0 2.3-2.7 5.5-4.7 5.5-3.1 0-2.9-1.4.5-3.9 2.6-2 4.2-2.6 4.2-1.6zm16.4 1.6c3.2 2.5 3.3 3.9.3 3.9-2 0-4.7-3.2-4.7-5.5 0-1.1 1.9-.4 4.4 1.6zM11 15.5c0 3.4-.1 3.5-4 3.5-4.1 0-4.5-.5-3.4-4.8.5-1.7 1.4-2.2 4-2.2 3.2 0 3.4.2 3.4 3.5zm25.4-1.9c.3.9.6 2.5.6 3.5 0 1.7-.6 2-3.7 1.7-3.5-.3-3.8-.6-4.1-3.6-.3-3.1-.2-3.2 3.1-3.2 2.3 0 3.7.6 4.1 1.6zM27 16v3h-7-7v-3-3h7 7v3zm-16 8.5c0 3.3-.2 3.5-3.4 3.5-2.6 0-3.5-.5-4-2.3C2.5 21.5 2.9 21 7 21c3.9 0 4 .1 4 3.5zm16-.5v3h-7-7v-3-3h7 7v3zm10-1.1c0 3.8-1.1 5.1-4.6 5.1-3.1 0-3.4-.3-3.4-2.8 0-3.7.6-4.2 4.7-4.2 2.6 0 3.3.4 3.3 1.9zM24.7 30c1.5 0 .7 2.7-1.5 5.2-2.3 2.7-5 2.2-7.2-1.5l-2-3.2 2.8-.7c1.5-.3 3.6-.4 4.7-.2s2.5.4 3.2.4zm-11.8 2.6c1.6 3.6.6 4.2-2.6 1.8-3.6-2.7-4-4.4-1-4.4 1.6 0 2.8.8 3.6 2.6zm19.9-1.4c-.6 1.6-5.6 5.3-6.3 4.6-.3-.3 0-1.7.6-3.2.8-1.8 2-2.6 3.6-2.6 1.5 0 2.3.5 2.1 1.2z"/></svg>