<svg xmlns="http://www.w3.org/2000/svg" width="512" height="512" viewBox="0 0 512 512"><path d="M115.3 1C59.8 7 15.7 46.7 2.7 102.5.6 111.4.6 113.4.2 250-.1 393.9 0 398.9 4 415c5.4 21.1 17 41.9 32.4 57.5 19.1 19.4 41.9 31.7 69.1 37.2 8.4 1.7 17.8 1.8 150.5 1.8l150.5-1.8c52.2-10.5 90.6-48 102.8-100.2 2.1-8.9 2.1-10.9 2.5-146 .4-145.3.2-150.4-4.3-167.3C496.3 54.7 465 21 424.8 7.4 403.8.2 413.6.7 260.5.4 184.6.3 119.2.6 115.3 1zm25.9 96.1c18.8 4 31.6 21.7 29.3 40.4-1.5 11.7-10.3 24.1-20.8 29.3-10.8 5.3-25.1 4.6-35.5-1.8-19.8-12.1-23.7-39.6-8.1-56.5 9.3-10.1 21.9-14.2 35.1-11.4zm29.6 211.6L171 414h-37-37V309.2l.7-105.5c.4-.4 16.9-.6 36.7-.5l36.1.3.3 105.2zM272 217.5c0 8 .4 14.5.8 14.5s1.5-1.2 2.4-2.8c2.7-4.4 9.7-11.1 15.5-14.9 13.2-8.4 28.9-11.8 50.8-11 45 1.7 65.3 20.3 71.6 65.2.6 4.9 1.3 35 1.6 76.7l.5 68.8h-31-31.1l-.3-61.8c-.3-55.3-.6-62.3-2.1-67.7-4.1-13.9-9.3-21.2-18.4-25.6-4.3-2.1-6.2-2.4-16.8-2.4-10.4 0-12.7.4-17.2 2.4-6.2 2.8-13.6 10.3-16.3 16.6-5.4 12.6-5.3 11.5-5.7 77.2l-.4 61.3h-30.5H215V308.5 203h28.5H272v14.5z"/></svg>