<svg xmlns="http://www.w3.org/2000/svg" width="512" height="512" viewBox="0 0 512 512"><path d="M110 1.5C58 9.2 15.4 48.1 3.7 98.5.2 113.6 0 120.2 0 256.3c0 144.1.1 145 4.9 162.2 12 42.3 46.3 76.6 88.6 88.6 17.2 4.8 18.1 4.9 162.2 4.9l143-1c29.5-3.9 54.6-16.2 75.4-36.9 20.7-20.8 33-45.9 36.9-75.4 1.4-10.7 1.4-274.7 0-285.4-3.9-29.5-16.2-54.6-36.9-75.4-20.8-20.7-45.9-33-75.4-36.9C386.5-.6 121-.1 110 1.5zm177.2 96.4c30 5.2 52.8 17.4 71.2 38 23.5 26.5 30.4 57.6 22 99.6-5.2 25.7-18.1 50.5-34.4 65.8-31.6 29.8-80.5 34.4-105.1 9.8l-5.9-5.9-.9 3.6c-16.4 62.7-19.2 69.3-41.8 99.9-5.5 7.6-6.3 8.2-8.1 6-3.3-3.9-4.5-48.6-1.8-63.7.8-4.7 6.9-30.6 13.6-57.7l12-49.1-1.6-4.4c-12.5-34.9 4-71.9 32.1-71.9 17.4 0 27.3 13 25.2 33-.7 5.9-5.1 22.2-11.8 43.6-7.1 22.5-6.5 31.9 2.5 41.1 7.2 7.2 14.1 9.7 25.7 9.2 7.3-.3 9.7-.9 15.3-3.7 25.2-12.4 41.6-47.9 41.9-90.6 0-11.6-.3-15.4-2.2-22-7.5-26.7-26.8-43.4-56.6-49-13.5-2.6-35.8-1.7-48 1.9-25.8 7.6-45.4 23.7-56.1 46.1-2.4 4.9-5.1 11.7-5.9 15-2.2 8.7-3.4 22-2.5 29.5 1.4 12.3 3.8 18.6 10.9 28 4.8 6.3 4.9 7.9 2 18.7-2.6 9.6-3.4 11.2-6.2 12.2-4.6 1.7-19.2-6.8-26.1-15.2-16.3-19.9-22-52-14.2-80.5 6.8-24.7 23.5-48.3 45-63.6 28.9-20.6 72.7-30 109.8-23.7z"/></svg>