<svg width="30" height="30" viewBox="0 0 30 30" fill="none" xmlns="http://www.w3.org/2000/svg">
<path fill-rule="evenodd" clip-rule="evenodd" d="M8.32332 22.8C9.54237 25.2734 11.1642 27.1553 12.5166 28.3738C8.94633 27.715 5.86475 25.6618 3.85768 22.8H8.32332ZM9.89988 22.8C10.386 23.6923 10.9257 24.4941 11.4775 25.2011C12.4069 26.392 13.358 27.2965 14.1147 27.8921C14.1784 27.9422 14.2402 27.9897 14.3 28.0348V22.8H9.89988ZM14.3 21.4H9.21857C8.56198 19.8747 8.08475 18.136 7.94265 16.2H14.3V21.4ZM15.7 22.8V28.0587C15.7698 28.0067 15.8423 27.9511 15.9174 27.8921C16.6741 27.2965 17.6252 26.392 18.5546 25.2011C19.1064 24.4941 19.6461 23.6923 20.1322 22.8H15.7ZM20.8135 21.4H15.7V16.2H22.0895C21.9474 18.136 21.4701 19.8747 20.8135 21.4ZM21.7088 22.8C20.4922 25.2683 18.8746 27.1476 17.5239 28.3663C21.0769 27.6995 24.1428 25.651 26.1423 22.8H21.7088ZM27.003 21.4H22.3269C22.9322 19.8539 23.3637 18.116 23.493 16.2H28.5478C28.3846 18.0671 27.8441 19.8259 27.003 21.4ZM7.70524 21.4H2.99697C2.15592 19.8259 1.61545 18.0671 1.45222 16.2H6.53912C6.66837 18.116 7.09987 19.8539 7.70524 21.4ZM14.3 14.8H7.90005C7.92831 12.4588 8.45083 10.3835 9.21858 8.59995H14.3V14.8ZM12.5166 1.62622C11.1642 2.84466 9.54237 4.72658 8.32333 7.19995H3.8577C5.86477 4.33817 8.94633 2.28499 12.5166 1.62622ZM11.4775 4.79888C10.9257 5.50586 10.386 6.30766 9.89989 7.19995H14.3V1.96524C14.2402 2.01029 14.1784 2.05784 14.1147 2.10795C13.358 2.70349 12.4069 3.60802 11.4775 4.79888ZM15.7 14.8V8.59995H20.8135C21.5813 10.3835 22.1038 12.4588 22.132 14.8H15.7ZM15.7 7.19995H20.1322C19.6461 6.30766 19.1064 5.50586 18.5546 4.79888C17.6252 3.60802 16.6741 2.70349 15.9174 2.10795C15.8423 2.04886 15.7698 1.99332 15.7 1.94126V7.19995ZM23.5321 14.8C23.5064 12.485 23.0359 10.4109 22.3269 8.59995H27.003C27.9928 10.4524 28.5663 12.5607 28.5986 14.8H23.5321ZM21.7088 7.19995H26.1423C24.1428 4.34899 21.0769 2.30051 17.5239 1.63375C18.8746 2.8524 20.4922 4.73167 21.7088 7.19995ZM7.70525 8.59995H2.99699C2.00721 10.4524 1.43371 12.5607 1.40144 14.8H6.49996C6.52566 12.485 6.99618 10.4109 7.70525 8.59995ZM15.0333 30L15.0333 30L15.0378 30C23.3047 29.9796 30 23.2717 30 15C30 6.72856 23.3051 0.0208021 15.0385 4.82895e-05L15.0333 0L15.0333 3.61381e-05L15 0H14.9988C6.71509 0.000637003 0 6.71612 0 15C0 23.2839 6.71509 29.9994 14.9988 30H15L15.0333 30Z" fill="#CDA173"/>
</svg>
