<svg xmlns="http://www.w3.org/2000/svg" width="512" height="512" viewBox="0 0 512 512"><path d="M110 1.5C58 9.2 15.4 48.1 3.7 98.5.2 113.6 0 120.2 0 256.3c0 144.1.1 145 4.9 162.2 12 42.3 46.3 76.6 88.6 88.6 17.2 4.8 18.1 4.9 162.2 4.9l143-1c29.5-3.9 54.6-16.2 75.4-36.9 20.7-20.8 33-45.9 36.9-75.4 1.4-10.7 1.4-274.7 0-285.4-3.9-29.5-16.2-54.6-36.9-75.4-20.8-20.7-45.9-33-75.4-36.9C386.5-.6 121-.1 110 1.5zM300 139c62.5 1.8 78.6 3.2 87.8 7.9 13.7 7 21.2 20.6 24.3 43.8 1.7 12.4 2.3 96.8.9 117.2-1.7 25.1-6 39.5-14.5 49-4.8 5.3-15.5 10.6-24.2 12-38.2 5.9-216.4 4.9-240.8-1.4-17.1-4.5-26.4-14.1-31-32.2-3-11.8-3.7-22.1-4.2-67.8-.8-67.4.9-86.2 9.2-103.2 5.5-11.1 15.2-18.4 28.1-21.1 6.6-1.4 37.7-3.2 71.8-4.1 40.5-1.1 54.7-1.2 92.6-.1zm-77 113.5c0 25.6.3 46.4.8 46.2.4-.3 19.4-10.5 42.2-22.7l42.2-22.9c.5-.4-80-45.3-84.3-46.9-.5-.2-.9 19.7-.9 46.3z"/></svg>