<svg xmlns="http://www.w3.org/2000/svg" width="512" height="512" viewBox="0 0 512 512"><path d="M110 1.5C58 9.2 15.4 48.1 3.7 98.5.2 113.6 0 120.2 0 256.3c0 144.1.1 145 4.9 162.2 12 42.3 46.3 76.6 88.6 88.6 17.2 4.8 18.1 4.9 162.2 4.9l143-1c29.5-3.9 54.6-16.2 75.4-36.9 20.7-20.8 33-45.9 36.9-75.4 1.4-10.7 1.4-274.7 0-285.4-3.9-29.5-16.2-54.6-36.9-75.4-20.8-20.7-45.9-33-75.4-36.9C386.5-.6 121-.1 110 1.5zm219 121.4v26.9l-19.7.4c-28 .4-28.4.8-29.1 25.5l-.4 15.3h25.1H330v2.3c0 1.3-1.1 14.9-2.5 30.2l-2.5 30.2v2.3h-24.5H276v79 79h-30.5H215v-79-79h-16-16v-32.5V191h13.9 13.8l.6-19.8c.6-22 2.2-30.2 7.9-42 4.2-8.7 15.9-20.7 24.4-25 13.3-6.7 21.9-7.9 58.7-8.1L329 96v26.9z"/></svg>