<svg xmlns="http://www.w3.org/2000/svg" width="512" height="512" viewBox="0 0 512 512"><path d="M115.3 1C59.8 7 15.7 46.7 2.7 102.5.6 111.4.6 113.4.2 250-.1 393.9 0 398.9 4 415c5.4 21.1 17 41.9 32.4 57.5 19.1 19.4 41.9 31.7 69.1 37.2 8.4 1.7 17.8 1.8 150.5 1.8l150.5-1.8c52.2-10.5 90.6-48 102.8-100.2 2.1-8.9 2.1-10.9 2.5-146 .4-145.3.2-150.4-4.3-167.3C496.3 54.7 465 21 424.8 7.4 403.8.2 413.6.7 260.5.4 184.6.3 119.2.6 115.3 1zm253.2 98.5c22.1 5.6 39.5 23.4 44 45 2.2 10.4 2.2 212.6 0 223-3.5 16.6-15.7 32.6-30.5 39.8-14.4 7-7.9 6.7-126 6.7-117.2 0-112.4.2-125.7-6.2-9.3-4.5-21.8-16.9-26.1-25.8-7.1-14.6-6.7-7.8-6.7-126s-.4-111.4 6.7-126c4.3-9 16.8-21.3 26.1-25.8 13-6.3 8-6 125.2-6.1l113 1.4zM324 160v27h27 27v-27-27h-27-27v27zm-82.9 41.5c-19 5.3-34.4 21.5-39.6 41.6-2.5 9.2-1.6 23.1 1.9 32.3 12.7 33.3 52.8 46.8 82.5 27.7 7.1-4.6 16.4-14.9 20-22.3 12-24.3 4.4-54.8-17.5-70.4-9.8-7-17.9-9.6-30.9-10-7.7-.3-12.6.1-16.4 1.1zm-115.1 90c0 65.6.1 67.6 2.1 72.9 2.7 7.3 9.6 14.8 16.7 18.3l5.7 2.8h105 105l5.6-2.6c7.2-3.4 13.4-9.6 16.8-16.8l2.6-5.6.3-68.3.3-68.2h-24.7c-23.1 0-24.6.1-23.9 1.7 5 11.8 6.7 31.5 4 45.8-6.1 32.4-29.4 58.5-61 68.1-8.1 2.5-10.5 2.8-24.5 2.8-17.7 0-23.2-1.1-36.8-7.5-24.9-11.6-41.8-32.5-48.3-59.5-3-12.6-2.4-33.4 1.3-44.2l2.4-7.2h-24.3H126v67.5z"/></svg>