<svg xmlns="http://www.w3.org/2000/svg" width="589" height="46" viewBox="0 0 589 46" ><path d="M230.8 1c-13.9 2.3-23.1 14.7-20 26.8 1.7 6.4 5.7 11.2 12.2 14.5 7.3 3.7 9 3.6 9-.7 0-2.9-.4-3.4-2.9-3.9-3.7-.8-8.6-5.7-10.1-10.3-4.3-13 11.8-24.8 25.5-18.5 2.2 1 4.6 2.5 5.4 3.4 1.2 1.5 1.6 1.5 4.2.1 1.6-.8 2.9-1.8 2.9-2.3 0-1.6-6.8-6.9-10.2-7.9-5.2-1.6-10.9-2-16-1.2zm239.5 0c-20.1 4.1-27.1 25.1-12.6 38.1 5 4.5 9.9 6.2 18.3 6.3 8 .1 14.5-2.2 18.9-6.8l3.3-3.4-3.2-1.7c-3.1-1.6-3.3-1.6-5.4.4-5.4 5.1-15 6.5-22.2 3.2-11.1-5.1-12.5-20-2.5-26.7 6.9-4.5 17.9-4.1 23.8 1 2.7 2.3 2.9 2.3 5.5.8 1.6-.9 2.8-1.9 2.8-2.3 0-1.4-7-6.7-10.2-7.7C481.6.6 474.9.1 470.3 1zm96 .2C560.7 2.4 557 6.7 557 12c0 5.7 3.5 9.2 12.9 13 4.4 1.7 8.4 3.7 8.9 4.3 3.6 4.7.1 9.7-6.8 9.7-4.7 0-7.7-1.3-10.5-4.6-2-2.3-2-2.3-5.5-.4l-3.5 1.8 4.2 4c4.9 4.6 11.8 6.8 18.5 5.7 8.7-1.5 12.8-5.2 12.8-11.8 0-6.4-2.2-9.3-10.4-13.2-4-1.9-7.8-3.5-8.3-3.5s-1.7-.8-2.6-1.8c-5.6-6.2 3.5-11.3 10.2-5.6 3.1 2.6 3.7 2.5 9-1.3.7-.5-3.3-4.5-5.9-5.8-3.6-1.8-8.9-2.3-13.7-1.3zM0 23v22h4 4V23 1H4 0v22zm19 0v22h4 4V23 1h-4-4v22zm23.8-11.4L30.7 23c-.5.4 5 5.6 12.2 11.4L56 45.1l5.4-.3 5.5-.3-13-10.5L41 23.5l11.7-11.2L64.5 1.1 59.3 1H54L42.8 11.6zM110 1.5c0 .3 2.7 6.2 5.9 13 3.3 6.9 6.2 13.3 6.5 14.3.5 1.6-.5 1.7-12.9 1.4l-13.4-.3-3.6 7c-1.9 3.9-3.5 7.3-3.5 7.6s1.8.5 4 .5c3.6 0 4.2-.4 5.7-3.5l1.7-3.5h13.3 13.4l1.5 3.5c1.3 3.2 1.8 3.5 5.5 3.5 2.9 0 4-.4 3.6-1.3-.2-.6-4.9-10.5-10.2-22L117.7 1h-3.8c-2.2 0-3.9.2-3.9.5zm45 21.4V45h4.5 4.5v-5.5V34h5.8c5.7 0 5.9.1 11.2 5.5 5.1 5.2 5.7 5.5 10.4 5.5h5l-6.4-6.5c-3.5-3.5-6.2-6.6-5.9-6.8.2-.2 2-1.3 4-2.5 6.9-4.2 8.8-13.4 4-20-3.9-5.5-10-7.5-24.3-8L155 .8v22.1zm24.4-14.5c9.3 3.9 8.5 15.9-1.2 18.6-2 .5-6.1 1-8.9 1H164V17.5 7h6c3.3 0 7.6.6 9.4 1.4zM264 23v22h4 4v-7-7h11.5H295v7 7h4 4V23 1h-4-4v11.5V24h-11.5H272V12.5 1h-4-4v22zm63 0v22h4 4V23 1h-4-4v22zm27-18.4v3.5l7.3-.2 7.2-.2.3 18.6.2 18.7h4 4V26.2 7.5h29.7 29.8l.3-3.3.3-3.2h-41.5H354v3.6zm153.2-.4l.3 3.3 7 .1 7 .1.3 18.7.2 18.6h4 4l.2-18.6.3-18.7 7-.1 7-.1.3-3.3.3-3.2H526h-19.1l.3 3.2zM401 32v13h18.5H438v-3-3h-14.5H409v-7-7h12.6 12.5l-.3-2.8-.3-2.7-16.2-.3L401 19v13z" fill="#ffffff"/></svg>