<?xml version="1.0" encoding="utf-8"?><svg xmlns="http://www.w3.org/2000/svg" xmlns:xlink="http://www.w3.org/1999/xlink"><symbol viewBox="0 0 512 512" id="facebook" xmlns="http://www.w3.org/2000/svg"><path d="M110 1.5C58 9.2 15.4 48.1 3.7 98.5.2 113.6 0 120.2 0 256.3c0 144.1.1 145 4.9 162.2 12 42.3 46.3 76.6 88.6 88.6 17.2 4.8 18.1 4.9 162.2 4.9l143-1c29.5-3.9 54.6-16.2 75.4-36.9 20.7-20.8 33-45.9 36.9-75.4 1.4-10.7 1.4-274.7 0-285.4-3.9-29.5-16.2-54.6-36.9-75.4-20.8-20.7-45.9-33-75.4-36.9C386.5-.6 121-.1 110 1.5zm219 121.4v26.9l-19.7.4c-28 .4-28.4.8-29.1 25.5l-.4 15.3H330v2.3c0 1.3-1.1 14.9-2.5 30.2l-2.5 30.2v2.3h-49v158h-61V256h-32v-65h27.7l.6-19.8c.6-22 2.2-30.2 7.9-42 4.2-8.7 15.9-20.7 24.4-25 13.3-6.7 21.9-7.9 58.7-8.1L329 96v26.9z"/></symbol><symbol viewBox="0 0 512 512" id="instagram" xmlns="http://www.w3.org/2000/svg"><path d="M115.3 1C59.8 7 15.7 46.7 2.7 102.5.6 111.4.6 113.4.2 250-.1 393.9 0 398.9 4 415c5.4 21.1 17 41.9 32.4 57.5 19.1 19.4 41.9 31.7 69.1 37.2 8.4 1.7 17.8 1.8 150.5 1.8l150.5-1.8c52.2-10.5 90.6-48 102.8-100.2 2.1-8.9 2.1-10.9 2.5-146 .4-145.3.2-150.4-4.3-167.3C496.3 54.7 465 21 424.8 7.4 403.8.2 413.6.7 260.5.4 184.6.3 119.2.6 115.3 1zm253.2 98.5c22.1 5.6 39.5 23.4 44 45 2.2 10.4 2.2 212.6 0 223-3.5 16.6-15.7 32.6-30.5 39.8-14.4 7-7.9 6.7-126 6.7-117.2 0-112.4.2-125.7-6.2-9.3-4.5-21.8-16.9-26.1-25.8-7.1-14.6-6.7-7.8-6.7-126s-.4-111.4 6.7-126c4.3-9 16.8-21.3 26.1-25.8 13-6.3 8-6 125.2-6.1l113 1.4zM324 160v27h54v-54h-54v27zm-82.9 41.5c-19 5.3-34.4 21.5-39.6 41.6-2.5 9.2-1.6 23.1 1.9 32.3 12.7 33.3 52.8 46.8 82.5 27.7 7.1-4.6 16.4-14.9 20-22.3 12-24.3 4.4-54.8-17.5-70.4-9.8-7-17.9-9.6-30.9-10-7.7-.3-12.6.1-16.4 1.1zm-115.1 90c0 65.6.1 67.6 2.1 72.9 2.7 7.3 9.6 14.8 16.7 18.3l5.7 2.8h210l5.6-2.6c7.2-3.4 13.4-9.6 16.8-16.8l2.6-5.6.3-68.3.3-68.2h-24.7c-23.1 0-24.6.1-23.9 1.7 5 11.8 6.7 31.5 4 45.8-6.1 32.4-29.4 58.5-61 68.1-8.1 2.5-10.5 2.8-24.5 2.8-17.7 0-23.2-1.1-36.8-7.5-24.9-11.6-41.8-32.5-48.3-59.5-3-12.6-2.4-33.4 1.3-44.2l2.4-7.2H126v67.5z"/></symbol><symbol viewBox="0 0 40 40" id="internet" xmlns="http://www.w3.org/2000/svg"><path d="M14.6 1.2C9 2.7 2.6 9.4 1.1 15.4-1.1 24.2 3.5 33.7 12 38c3.4 1.8 12.9 1.7 16.5-.2 7-3.7 10.8-10 10.8-17.8 0-9-5.2-16-13.7-18.5C20-.2 20-.2 14.6 1.2zm9.4 5c1.5 2.4 1.6 3.4.7 4-1.6 1-7.8 1-9.4 0C13.5 9 17.4 3 20 3c1.2 0 2.8 1.3 4 3.2zM14 4.5c0 2.3-2.7 5.5-4.7 5.5-3.1 0-2.9-1.4.5-3.9 2.6-2 4.2-2.6 4.2-1.6zm16.4 1.6c3.2 2.5 3.3 3.9.3 3.9-2 0-4.7-3.2-4.7-5.5 0-1.1 1.9-.4 4.4 1.6zM11 15.5c0 3.4-.1 3.5-4 3.5-4.1 0-4.5-.5-3.4-4.8.5-1.7 1.4-2.2 4-2.2 3.2 0 3.4.2 3.4 3.5zm25.4-1.9c.3.9.6 2.5.6 3.5 0 1.7-.6 2-3.7 1.7-3.5-.3-3.8-.6-4.1-3.6-.3-3.1-.2-3.2 3.1-3.2 2.3 0 3.7.6 4.1 1.6zM27 16v3H13v-6h14v3zm-16 8.5c0 3.3-.2 3.5-3.4 3.5-2.6 0-3.5-.5-4-2.3C2.5 21.5 2.9 21 7 21c3.9 0 4 .1 4 3.5zm16-.5v3H13v-6h14v3zm10-1.1c0 3.8-1.1 5.1-4.6 5.1-3.1 0-3.4-.3-3.4-2.8 0-3.7.6-4.2 4.7-4.2 2.6 0 3.3.4 3.3 1.9zM24.7 30c1.5 0 .7 2.7-1.5 5.2-2.3 2.7-5 2.2-7.2-1.5l-2-3.2 2.8-.7c1.5-.3 3.6-.4 4.7-.2s2.5.4 3.2.4zm-11.8 2.6c1.6 3.6.6 4.2-2.6 1.8-3.6-2.7-4-4.4-1-4.4 1.6 0 2.8.8 3.6 2.6zm19.9-1.4c-.6 1.6-5.6 5.3-6.3 4.6-.3-.3 0-1.7.6-3.2.8-1.8 2-2.6 3.6-2.6 1.5 0 2.3.5 2.1 1.2z"/></symbol><symbol viewBox="0 0 512 512" id="linkedin" xmlns="http://www.w3.org/2000/svg"><path d="M115.3 1C59.8 7 15.7 46.7 2.7 102.5.6 111.4.6 113.4.2 250-.1 393.9 0 398.9 4 415c5.4 21.1 17 41.9 32.4 57.5 19.1 19.4 41.9 31.7 69.1 37.2 8.4 1.7 17.8 1.8 150.5 1.8l150.5-1.8c52.2-10.5 90.6-48 102.8-100.2 2.1-8.9 2.1-10.9 2.5-146 .4-145.3.2-150.4-4.3-167.3C496.3 54.7 465 21 424.8 7.4 403.8.2 413.6.7 260.5.4 184.6.3 119.2.6 115.3 1zm25.9 96.1c18.8 4 31.6 21.7 29.3 40.4-1.5 11.7-10.3 24.1-20.8 29.3-10.8 5.3-25.1 4.6-35.5-1.8-19.8-12.1-23.7-39.6-8.1-56.5 9.3-10.1 21.9-14.2 35.1-11.4zm29.6 211.6L171 414H97V309.2l.7-105.5c.4-.4 16.9-.6 36.7-.5l36.1.3.3 105.2zM272 217.5c0 8 .4 14.5.8 14.5s1.5-1.2 2.4-2.8c2.7-4.4 9.7-11.1 15.5-14.9 13.2-8.4 28.9-11.8 50.8-11 45 1.7 65.3 20.3 71.6 65.2.6 4.9 1.3 35 1.6 76.7l.5 68.8h-62.1l-.3-61.8c-.3-55.3-.6-62.3-2.1-67.7-4.1-13.9-9.3-21.2-18.4-25.6-4.3-2.1-6.2-2.4-16.8-2.4-10.4 0-12.7.4-17.2 2.4-6.2 2.8-13.6 10.3-16.3 16.6-5.4 12.6-5.3 11.5-5.7 77.2l-.4 61.3H215V203h57v14.5z"/></symbol><symbol viewBox="0 0 512 512" id="pinterest" xmlns="http://www.w3.org/2000/svg"><path d="M110 1.5C58 9.2 15.4 48.1 3.7 98.5.2 113.6 0 120.2 0 256.3c0 144.1.1 145 4.9 162.2 12 42.3 46.3 76.6 88.6 88.6 17.2 4.8 18.1 4.9 162.2 4.9l143-1c29.5-3.9 54.6-16.2 75.4-36.9 20.7-20.8 33-45.9 36.9-75.4 1.4-10.7 1.4-274.7 0-285.4-3.9-29.5-16.2-54.6-36.9-75.4-20.8-20.7-45.9-33-75.4-36.9C386.5-.6 121-.1 110 1.5zm177.2 96.4c30 5.2 52.8 17.4 71.2 38 23.5 26.5 30.4 57.6 22 99.6-5.2 25.7-18.1 50.5-34.4 65.8-31.6 29.8-80.5 34.4-105.1 9.8l-5.9-5.9-.9 3.6c-16.4 62.7-19.2 69.3-41.8 99.9-5.5 7.6-6.3 8.2-8.1 6-3.3-3.9-4.5-48.6-1.8-63.7.8-4.7 6.9-30.6 13.6-57.7l12-49.1-1.6-4.4c-12.5-34.9 4-71.9 32.1-71.9 17.4 0 27.3 13 25.2 33-.7 5.9-5.1 22.2-11.8 43.6-7.1 22.5-6.5 31.9 2.5 41.1 7.2 7.2 14.1 9.7 25.7 9.2 7.3-.3 9.7-.9 15.3-3.7 25.2-12.4 41.6-47.9 41.9-90.6 0-11.6-.3-15.4-2.2-22-7.5-26.7-26.8-43.4-56.6-49-13.5-2.6-35.8-1.7-48 1.9-25.8 7.6-45.4 23.7-56.1 46.1-2.4 4.9-5.1 11.7-5.9 15-2.2 8.7-3.4 22-2.5 29.5 1.4 12.3 3.8 18.6 10.9 28 4.8 6.3 4.9 7.9 2 18.7-2.6 9.6-3.4 11.2-6.2 12.2-4.6 1.7-19.2-6.8-26.1-15.2-16.3-19.9-22-52-14.2-80.5 6.8-24.7 23.5-48.3 45-63.6 28.9-20.6 72.7-30 109.8-23.7z"/></symbol><symbol viewBox="0 0 30 30" id="planet" xmlns="http://www.w3.org/2000/svg"><path fill-rule="evenodd" clip-rule="evenodd" d="M8.323 22.8a18.814 18.814 0 004.194 5.574 13.604 13.604 0 01-8.66-5.574h4.466zm1.577 0a17.577 17.577 0 001.577 2.401c.93 1.191 1.881 2.096 2.638 2.691.063.05.125.098.185.143V22.8H9.9zm4.4-1.4H9.219a16.08 16.08 0 01-1.276-5.2H14.3v5.2zm1.4 1.4v5.259a10 10 0 00.217-.167c.757-.595 1.708-1.5 2.638-2.69a17.575 17.575 0 001.577-2.402H15.7zm5.114-1.4H15.7v-5.2h6.39a16.08 16.08 0 01-1.276 5.2zm.895 1.4a18.818 18.818 0 01-4.185 5.566 13.605 13.605 0 008.618-5.566H21.71zm5.294-1.4h-4.676a17.437 17.437 0 001.166-5.2h5.055a13.512 13.512 0 01-1.545 5.2zm-19.298 0H2.997a13.514 13.514 0 01-1.545-5.2H6.54c.13 1.916.56 3.654 1.166 5.2zm6.595-6.6H7.9a16.08 16.08 0 011.319-6.2H14.3v6.2zM12.517 1.626A18.813 18.813 0 008.323 7.2H3.858a13.604 13.604 0 018.659-5.574zM11.477 4.8A17.575 17.575 0 009.9 7.2h4.4V1.965a8.59 8.59 0 00-.185.143c-.757.595-1.708 1.5-2.638 2.69zm4.223 10V8.6h5.114a16.079 16.079 0 011.318 6.2H15.7zm0-7.6h4.432a17.574 17.574 0 00-1.577-2.401c-.93-1.191-1.88-2.096-2.638-2.691a7.592 7.592 0 00-.217-.167V7.2zm7.832 7.6a17.45 17.45 0 00-1.205-6.2h4.676a13.535 13.535 0 011.596 6.2h-5.067zM21.71 7.2h4.433c-2-2.851-5.065-4.9-8.618-5.566A18.817 18.817 0 0121.709 7.2zM7.705 8.6H2.997a13.534 13.534 0 00-1.596 6.2H6.5a17.45 17.45 0 011.205-6.2zM15.033 30h.005C23.305 29.98 30 23.272 30 15 30 6.729 23.305.02 15.039 0h-.04C6.715 0 0 6.716 0 15c0 8.284 6.715 15 14.999 15h.034z"/></symbol><symbol viewBox="0 0 95 54" id="scroll-down" xmlns="http://www.w3.org/2000/svg"><path d="M2.7 3.8L0 6.6l23.8 23.7L47.5 54l23.8-23.8L95.1 6.4 92 3.5 88.9.6 68.2 21.3 47.4 42.1 27.1 21.5C16 10.2 6.5 1 6.1 1S4.2 2.3 2.7 3.8z"/></symbol><symbol viewBox="0 0 671 671" id="short-logo" xmlns="http://www.w3.org/2000/svg"><path d="M261 152v151H1v183.6l1.2 182.8c.7-.5 71.1-56.4 156.3-124.3l164.1-130.7 9.1-7.3 168.9 131.5L670.2 670c.4 0 .5-7.5.2-16.7L667.9 470l-2.7-167.2C663.6 301.1 262.4 1 261.8 1c-.5 0-.8 67.9-.8 151zm11 459.5V671h119V552H272v59.5z"/></symbol><symbol viewBox="0 0 512 512" id="youtube" xmlns="http://www.w3.org/2000/svg"><path d="M110 1.5C58 9.2 15.4 48.1 3.7 98.5.2 113.6 0 120.2 0 256.3c0 144.1.1 145 4.9 162.2 12 42.3 46.3 76.6 88.6 88.6 17.2 4.8 18.1 4.9 162.2 4.9l143-1c29.5-3.9 54.6-16.2 75.4-36.9 20.7-20.8 33-45.9 36.9-75.4 1.4-10.7 1.4-274.7 0-285.4-3.9-29.5-16.2-54.6-36.9-75.4-20.8-20.7-45.9-33-75.4-36.9C386.5-.6 121-.1 110 1.5zM300 139c62.5 1.8 78.6 3.2 87.8 7.9 13.7 7 21.2 20.6 24.3 43.8 1.7 12.4 2.3 96.8.9 117.2-1.7 25.1-6 39.5-14.5 49-4.8 5.3-15.5 10.6-24.2 12-38.2 5.9-216.4 4.9-240.8-1.4-17.1-4.5-26.4-14.1-31-32.2-3-11.8-3.7-22.1-4.2-67.8-.8-67.4.9-86.2 9.2-103.2 5.5-11.1 15.2-18.4 28.1-21.1 6.6-1.4 37.7-3.2 71.8-4.1 40.5-1.1 54.7-1.2 92.6-.1zm-77 113.5c0 25.6.3 46.4.8 46.2.4-.3 19.4-10.5 42.2-22.7l42.2-22.9c.5-.4-80-45.3-84.3-46.9-.5-.2-.9 19.7-.9 46.3z"/></symbol></svg>